<?xml version="1.0" standalone="no"?><svg xmlns="http://www.w3.org/2000/svg" viewBox="0 0 1440 320"><path fill="#5000ca" fill-opacity="0.7" d="M0,256L15,245.3C30,235,60,213,90,186.7C120,160,150,128,180,101.3C210,75,240,53,270,80C300,107,330,181,360,213.3C390,245,420,235,450,218.7C480,203,510,181,540,160C570,139,600,117,630,106.7C660,96,690,96,720,90.7C750,85,780,75,810,90.7C840,107,870,149,900,170.7C930,192,960,192,990,208C1020,224,1050,256,1080,240C1110,224,1140,160,1170,128C1200,96,1230,96,1260,90.7C1290,85,1320,75,1350,64C1380,53,1410,43,1425,37.3L1440,32L1440,320L1425,320C1410,320,1380,320,1350,320C1320,320,1290,320,1260,320C1230,320,1200,320,1170,320C1140,320,1110,320,1080,320C1050,320,1020,320,990,320C960,320,930,320,900,320C870,320,840,320,810,320C780,320,750,320,720,320C690,320,660,320,630,320C600,320,570,320,540,320C510,320,480,320,450,320C420,320,390,320,360,320C330,320,300,320,270,320C240,320,210,320,180,320C150,320,120,320,90,320C60,320,30,320,15,320L0,320Z"></path></svg>